<?xml version="1.0" encoding="UTF-8"?>
<!DOCTYPE svg PUBLIC "-//W3C//DTD SVG 1.1//EN" "http://www.w3.org/Graphics/SVG/1.1/DTD/svg11.dtd">
<!-- Creator: CorelDRAW 2018 (64-Bit Оценочная версия) -->
<svg xmlns="http://www.w3.org/2000/svg" xml:space="preserve" width="67.7332mm" height="47.4132mm" version="1.1" style="shape-rendering:geometricPrecision; text-rendering:geometricPrecision; image-rendering:optimizeQuality; fill-rule:evenodd; clip-rule:evenodd"
viewBox="0 0 6773.32 4741.32"
 xmlns:xlink="http://www.w3.org/1999/xlink">
 <defs>
  <style type="text/css">
   <![CDATA[
    .fil0 {fill:#CCCCCC}
   ]]>
  </style>
 </defs>
 <g id="Слой_x0020_1">
  <metadata id="CorelCorpID_0Corel-Layer"/>
  <path class="fil0" d="M3386.69 592.66c981.98,0 1778,796.01 1778,1778 0,981.98 -796.02,1777.99 -1778,1777.99 -981.99,0 -1778,-796.01 -1778,-1777.99 0,-981.99 796.01,-1778 1778,-1778zm-3386.69 1778c74.75,-490.33 1561.54,-2370.67 3386.66,-2370.67 1825.12,0 3311.91,1880.34 3386.66,2370.67 -74.75,490.32 -1561.54,2370.66 -3386.66,2370.66 -1825.12,0 -3311.91,-1880.34 -3386.66,-2370.66zm3079.99 -1144.64c632.15,-169.43 1281.94,205.77 1451.31,837.92 169.43,632.17 -205.75,1281.98 -837.92,1451.35 -632.17,169.43 -1281.93,-205.77 -1451.36,-837.92 -84.7,-316.07 -33.25,-636.6 118.42,-899.22l1026.25 592.51 -306.7 -1144.64z"/>
 </g>
</svg>
